<svg t="1719467990833" class="icon" viewBox="0 0 1024 1024" version="1.1"
    xmlns="http://www.w3.org/2000/svg" p-id="15566" width="64" height="64">
    <path d="M640 266.666667v490.666666a53.393333 53.393333 0 0 1-53.333333 53.333334H53.333333a53.393333 53.393333 0 0 1-53.333333-53.333334V266.666667a53.393333 53.393333 0 0 1 53.333333-53.333334h533.333334a53.393333 53.393333 0 0 1 53.333333 53.333334z" fill="#5C5C66" p-id="15567"></path>
    <path d="M997.053333 220.533333a52.746667 52.746667 0 0 0-53.613333 0.493334l-192 114a53.553333 53.553333 0 0 0-26.106667 45.853333v262.24a53.54 53.54 0 0 0 26.106667 45.853333l192 114a53.333333 53.333333 0 0 0 80.56-45.853333V266.88a52.746667 52.746667 0 0 0-26.946667-46.346667z" fill="#5C5C66" p-id="15567" transform="translate(218.4, 167.4) scale(0.65)"></path>
</svg>
