<?xml version="1.0" standalone="no"?><!DOCTYPE svg PUBLIC "-//W3C//DTD SVG 1.1//EN" "http://www.w3.org/Graphics/SVG/1.1/DTD/svg11.dtd"><svg t="1719473979672" class="icon" viewBox="0 0 1024 1024" version="1.1" xmlns="http://www.w3.org/2000/svg" p-id="26657" xmlns:xlink="http://www.w3.org/1999/xlink" width="64" height="64"><path d="M291.55 206h441.552c58.286 0 105.549 53.196 105.549 118.797v323.639c0 65.6-47.263 118.796-105.549 118.796H512.325l-172.01 107.352c-5.623 3.51-13.025 1.796-16.534-3.826a12 12 0 0 1-0.697-11.422L366 767.232h-74.45c-58.287 0-105.55-53.196-105.55-118.796v-323.64C186 259.145 233.263 206 291.55 206zM321 536c24.853 0 45-20.147 45-45s-20.147-45-45-45-45 20.147-45 45 20.147 45 45 45z m180 0c24.853 0 45-20.147 45-45s-20.147-45-45-45-45 20.147-45 45 20.147 45 45 45z m180 0c24.853 0 45-20.147 45-45s-20.147-45-45-45-45 20.147-45 45 20.147 45 45 45z" fill="#4e5461" p-id="26658" data-spm-anchor-id="a313x.search_index.0.i80.50d53a81UxHErh" class="selected"></path></svg>