<?xml version="1.0" standalone="no"?><!DOCTYPE svg PUBLIC "-//W3C//DTD SVG 1.1//EN" "http://www.w3.org/Graphics/SVG/1.1/DTD/svg11.dtd"><svg t="1726675898620" class="icon" viewBox="0 0 1024 1024" version="1.1" xmlns="http://www.w3.org/2000/svg" p-id="13696" xmlns:xlink="http://www.w3.org/1999/xlink" width="256" height="256"><path d="M1257.909403303755 683.0329076593737H683.0329076593737v569.5376757843347c0 62.92180549341494-50.90946080830846 113.83126630172337-113.83126630172337 113.83126630172337h-113.83126630172337c-62.92180549341494 0-114.02193843958224-50.90946080830846-114.02193843958224-113.83126630172337V683.0329076593737H-233.52805902803755c-60.06172342553244 0-108.68311857953489-48.62139515400246-108.68311857953489-108.68311857953489v-124.50890602181805c0-60.06172342553244 48.62139515400246-108.68311857953489 108.68311857953489-108.68311857953489h574.876495644382V-228.37991130584908c0-62.92180549341494 51.10013294616729-113.83126630172337 114.02193843958224-113.83126630172337H569.2016413576499c62.92180549341494 0 113.83126630172337 51.10013294616729 113.83126630172337 113.83126630172337v569.5376757843347h574.876495644382c60.06172342553244 0 108.68311857953489 48.62139515400246 108.68311857953489 108.68311857953489v124.50890602181805c0 59.87105128767361-48.62139515400246 108.68311857953489-108.68311857953489 108.68311857953489z" fill="#ffffff" p-id="13697"></path></svg>