<?xml version="1.0" standalone="no"?><!DOCTYPE svg PUBLIC "-//W3C//DTD SVG 1.1//EN" "http://www.w3.org/Graphics/SVG/1.1/DTD/svg11.dtd"><svg t="1726677289017" class="icon" viewBox="0 0 1024 1024" version="1.1" xmlns="http://www.w3.org/2000/svg" p-id="61938" xmlns:xlink="http://www.w3.org/1999/xlink" width="256" height="256"><path d="M320.1 130.4v127.7h384.1V130.4h160c19.2 0 32 12.8 32 31.9v766c0 19.2-12.8 31.9-32 31.9H160c-19.2 0-32-12.8-32-31.9v-766c0-19.1 12.8-31.9 32-31.9h160.1z m0 319.2v63.8h384.1v-63.8H320.1z m0 127.6V641h384.1v-63.8H320.1z m0 127.7v63.8h384.1v-63.8H320.1z m96-638.3h192c19.2 0 32 12.8 32 31.9v95.7h-256V98.5c0-19.2 12.8-31.9 32-31.9z" p-id="61939" fill="#ffffff"></path></svg>