<?xml version="1.0" standalone="no"?><!DOCTYPE svg PUBLIC "-//W3C//DTD SVG 1.1//EN" "http://www.w3.org/Graphics/SVG/1.1/DTD/svg11.dtd"><svg t="1726676334001" class="icon" viewBox="0 0 1024 1024" version="1.1" xmlns="http://www.w3.org/2000/svg" p-id="30221" xmlns:xlink="http://www.w3.org/1999/xlink" width="256" height="256"><path d="M638.293333 170.666667H385.706667c-37.546667 0-66.56-30.72-66.56-66.56v-3.413334c0-37.546667 30.72-66.56 66.56-66.56h254.293333c37.546667 0 66.56 30.72 66.56 66.56V102.4c0 37.546667-30.72 68.266667-68.266667 68.266667z" fill="#ffffff" p-id="30222"></path><path d="M885.76 117.76h-124.586667v46.08c0 34.133333-27.306667 63.146667-63.146666 63.146667H324.266667c-34.133333 0-63.146667-27.306667-63.146667-63.146667V117.76H138.24c-34.133333 0-63.146667 27.306667-63.146667 63.146667v747.52c0 34.133333 27.306667 63.146667 63.146667 63.146666h747.52c34.133333 0 63.146667-27.306667 63.146667-63.146666V179.2c0-34.133333-29.013333-61.44-63.146667-61.44z m-124.586667 372.053333c-1.706667 8.533333-6.826667 15.36-13.653333 20.48L448.853333 725.333333c-10.24 8.533333-23.893333 11.946667-37.546666 11.946667-17.066667 0-34.133333-6.826667-46.08-18.773333l-95.573334-97.28c-11.946667-11.946667-11.946667-34.133333 0-46.08 6.826667-6.826667 13.653333-8.533333 22.186667-8.533334s17.066667 3.413333 22.186667 10.24l93.866666 95.573334 296.96-213.333334c15.36-10.24 35.84-6.826667 46.08 6.826667 10.24 6.826667 11.946667 15.36 10.24 23.893333z" fill="#ffffff" p-id="30223"></path></svg>