<?xml version="1.0" standalone="no"?><!DOCTYPE svg PUBLIC "-//W3C//DTD SVG 1.1//EN" "http://www.w3.org/Graphics/SVG/1.1/DTD/svg11.dtd"><svg t="1726674949898" class="icon" viewBox="0 0 1024 1024" version="1.1" xmlns="http://www.w3.org/2000/svg" p-id="4921" xmlns:xlink="http://www.w3.org/1999/xlink" width="256" height="256"><path d="M527.34 837.67l239.92-359.88c9.42-14.14 5.6-33.25-8.55-42.67a30.702 30.702 0 0 0-17.05-5.16H553.02V203.4c0-16.99-13.77-30.77-30.76-30.77-10.29 0-19.89 5.14-25.6 13.7L256.74 546.21c-9.42 14.14-5.6 33.24 8.54 42.67a30.744 30.744 0 0 0 17.06 5.17h188.64V820.6c0 16.99 13.77 30.77 30.76 30.77 10.29 0 19.9-5.14 25.6-13.7z" fill="#ffffff" p-id="4922"></path></svg>