<?xml version="1.0" standalone="no"?><!DOCTYPE svg PUBLIC "-//W3C//DTD SVG 1.1//EN" "http://www.w3.org/Graphics/SVG/1.1/DTD/svg11.dtd"><svg t="1719473628917" class="icon" viewBox="0 0 1024 1024" version="1.1" xmlns="http://www.w3.org/2000/svg" p-id="25150" xmlns:xlink="http://www.w3.org/1999/xlink" width="64" height="64"><path d="M290.88 152.256A192 192 0 1 1 562.432 423.68 192 192 0 0 1 290.88 152.32zM475.456 565.312c46.208 0 83.52 0 113.728 2.496 31.104 2.56 58.368 7.872 83.648 20.8 40.128 20.48 72.768 53.12 93.248 93.184 12.864 25.28 18.24 52.608 20.8 83.712 2.432 30.208 2.432 67.52 2.432 113.728v6.08a42.688 42.688 0 0 1-42.624 42.688h-640A42.688 42.688 0 0 1 64 885.312v-6.08c0-46.208 0-83.52 2.496-113.728 2.56-31.104 7.872-58.432 20.736-83.712 20.48-40.128 53.12-72.768 93.248-93.184 25.28-12.864 52.608-18.24 83.712-20.8 30.208-2.496 67.456-2.496 113.728-2.496h97.536zM675.84 135.232a48 48 0 0 1 65.92-16.32 197.248 197.248 0 0 1 0 338.176 48 48 0 0 1-49.6-82.176 101.248 101.248 0 0 0 0-173.824 48 48 0 0 1-16.32-65.92zM799.168 497.024a48 48 0 0 0-30.336 91.072c40 13.312 61.696 31.424 74.496 51.904 13.376 21.44 20.672 51.328 20.672 94.528v117.376a48 48 0 0 0 96 0v-117.376c0-52.736-8.704-102.848-35.328-145.408-27.2-43.52-69.504-73.408-125.44-92.096z" fill="#4e5461" p-id="25151"></path></svg>