<?xml version="1.0" standalone="no"?><!DOCTYPE svg PUBLIC "-//W3C//DTD SVG 1.1//EN" "http://www.w3.org/Graphics/SVG/1.1/DTD/svg11.dtd"><svg t="1719474817085" class="icon" viewBox="0 0 1024 1024" version="1.1" xmlns="http://www.w3.org/2000/svg" p-id="29174" xmlns:xlink="http://www.w3.org/1999/xlink" width="64" height="64"><path d="M256 512c0 89.6 51.2 172.8 128 224s179.2 44.8 256 0 128-128 128-224-51.2-172.8-128-224-179.2-44.8-256 0S256 422.4 256 512z m256-448C262.4 64 64 262.4 64 512s198.4 448 448 448 448-198.4 448-448-198.4-448-448-448z m0 832c-211.2 0-384-172.8-384-384s172.8-384 384-384 384 172.8 384 384-172.8 384-384 384z" fill="#4e5461" p-id="29175"></path><path d="M256 512c0 89.6 51.2 172.8 128 224s179.2 44.8 256 0 128-128 128-224-51.2-172.8-128-224-179.2-44.8-256 0S256 422.4 256 512z m256-448C262.4 64 64 262.4 64 512s198.4 448 448 448 448-198.4 448-448-198.4-448-448-448z m0 832c-211.2 0-384-172.8-384-384s172.8-384 384-384 384 172.8 384 384-172.8 384-384 384z" fill="#4e5461" p-id="29176"></path></svg>