<?xml version="1.0" standalone="no"?><!DOCTYPE svg PUBLIC "-//W3C//DTD SVG 1.1//EN" "http://www.w3.org/Graphics/SVG/1.1/DTD/svg11.dtd">
<svg t="1719472225125" class="icon" viewBox="0 0 1024 1024" version="1.1"
    xmlns="http://www.w3.org/2000/svg" p-id="18424" data-spm-anchor-id="a313x.search_index.0.i61.50d53a81UxHErh" width="64" height="64"
    xmlns:xlink="http://www.w3.org/1999/xlink">
    <rect width="80%" height="55%" x="10%" y="16%" fill="#4e5461" />
    <path d="M474.043733 493.841067h-101.717333a16.520533 16.520533 0 0 1-11.6736-28.228267l138.0352-138.0352a16.520533 16.520533 0 0 1 23.381333 0l138.0352 138.0352a16.520533 16.520533 0 0 1-11.707733 28.228267h-101.6832v107.52h-72.704v-107.52z" p-id="18425" data-spm-anchor-id="a313x.search_index.0.i62.50d53a81UxHErh" class="selected" fill="#ffffff"></path>
    <path d="M906.922667 102.4c36.4544 0 66.048 29.5936 66.048 66.082133v543.9488c0 36.488533-29.5936 66.082133-66.082134 66.082134H113.8688A66.082133 66.082133 0 0 1 47.786667 712.430933V168.482133C47.786667 131.959467 77.380267 102.4 113.8688 102.4H906.922667z m-6.656 72.704H120.490667v530.705067h779.810133V175.104z" p-id="18426" data-spm-anchor-id="a313x.search_index.0.i60.50d53a81UxHErh" class="" fill="#27d08e"></path>
    <path d="M331.707733 885.248c0-20.0704 16.247467-36.352 36.352-36.352h284.672a36.352 36.352 0 1 1 0 72.704h-284.672a36.352 36.352 0 0 1-36.352-36.352z" p-id="18427" data-spm-anchor-id="a313x.search_index.0.i63.50d53a81UxHErh" class="" fill="#27d08e"></path>
</svg>