<?xml version="1.0" standalone="no"?><!DOCTYPE svg PUBLIC "-//W3C//DTD SVG 1.1//EN" "http://www.w3.org/Graphics/SVG/1.1/DTD/svg11.dtd">
<svg t="1719467309044" class="icon" viewBox="0 0 1024 1024" version="1.1"
    xmlns="http://www.w3.org/2000/svg" p-id="14190" width="64" height="64"
    xmlns:xlink="http://www.w3.org/1999/xlink">
    <rect width="70%" height="50%" x="15%" y="10%" fill="white" />
    <path d="M193.749333 708.906667C122.410667 708.906667 64 650.922667 64 580.032V128.896C64 58.026667 122.410667 0 193.749333 0H842.453333c71.36 0 129.749333 58.026667 129.749334 128.896v451.114667c0 70.890667-58.389333 128.917333-129.749334 128.917333H193.749333zM534.4 492.330667c8.533333 0.042667 16.746667-3.178667 22.976-8.981334l227.626667-214.4a29.376 29.376 0 0 0 0-43.328 33.92 33.92 0 0 0-45.994667 0L534.4 418.346667l-107.093333-100.821334a33.92 33.92 0 0 0-45.973334 0l-130.112 122.474667a29.376 29.376 0 0 0 0 43.306667 33.92 33.92 0 0 0 46.016 0l107.093334-100.842667 107.093333 100.864a33.493333 33.493333 0 0 0 22.976 8.96z m389.184 295.381333c26.773333 0 48.64 21.269333 48.64 47.253333 0 26.005333-21.866667 47.274667-48.64 47.274667h-158.144l51.093333 66.154667a46.378667 46.378667 0 0 1-9.728 66.176c-8.746667 6.378667-19.029333 9.450667-29.162666 9.450666a49.109333 49.109333 0 0 1-38.933334-18.901333l-94.890666-122.88H392.405333l-94.869333 122.88a49.109333 49.109333 0 0 1-38.933333 18.901333 49.493333 49.493333 0 0 1-29.184-9.450666 46.464 46.464 0 0 1-9.728-66.176l51.093333-66.154667H112.64c-26.773333 0-48.64-21.269333-48.64-47.274667 0-25.984 21.866667-47.253333 48.64-47.253333h810.922667z" fill="#3ABCFB" p-id="14191"></path>
</svg>